<?xml version="1.0" encoding="UTF-8" standalone="no"?>
<!-- Created with Inkscape (http://www.inkscape.org/) -->

<svg
   width="91.525421mm"
   height="105.38796mm"
   viewBox="0 0 91.525421 105.38796"
   version="1.1"
   id="svg5"
   inkscape:version="1.1 (c4e8f9ed74, 2021-05-24)"
   sodipodi:docname="alexandria_logo.svg"
   inkscape:export-filename="/home/alvaro/Desktop/AcheronProject/file_hosting/alexandria/alexandria_logo.png"
   inkscape:export-xdpi="300"
   inkscape:export-ydpi="300"
   xmlns:inkscape="http://www.inkscape.org/namespaces/inkscape"
   xmlns:sodipodi="http://sodipodi.sourceforge.net/DTD/sodipodi-0.dtd"
   xmlns="http://www.w3.org/2000/svg"
   xmlns:svg="http://www.w3.org/2000/svg">
  <sodipodi:namedview
     id="namedview7"
     pagecolor="#ffffff"
     bordercolor="#666666"
     borderopacity="1.0"
     inkscape:pageshadow="2"
     inkscape:pageopacity="0"
     inkscape:pagecheckerboard="0"
     inkscape:document-units="mm"
     showgrid="false"
     inkscape:snap-intersection-paths="true"
     inkscape:object-nodes="true"
     inkscape:snap-others="true"
     inkscape:zoom="0.94867185"
     inkscape:cx="73.260317"
     inkscape:cy="223.99737"
     inkscape:window-width="1310"
     inkscape:window-height="1003"
     inkscape:window-x="2332"
     inkscape:window-y="429"
     inkscape:window-maximized="0"
     inkscape:current-layer="text3288"
     inkscape:snap-bbox="false"
     inkscape:snap-center="true"
     inkscape:snap-smooth-nodes="true"
     inkscape:object-paths="true"
     inkscape:snap-nodes="true" />
  <defs
     id="defs2">
    <rect
       x="-21.024534"
       y="263.66977"
       width="866.83582"
       height="221.84244"
       id="rect3290" />
  </defs>
  <g
     inkscape:label="Layer 1"
     inkscape:groupmode="layer"
     id="layer1"
     transform="translate(5.4075784,-63.440644)">
    <g
       aria-label="alexandria"
       transform="scale(0.26458333)"
       id="text3288"
       style="font-size:40px;line-height:1.25;font-family:pirulen;-inkscape-font-specification:pirulen;white-space:pre;shape-inside:url(#rect3290)">
      <g
         id="g7926"
         transform="translate(13.806506,-36.372261)">
        <g
           id="g1149">
          <g
             id="g853"
             transform="translate(-22.131064,-108.01169)">
            <path
               style="fill:#000000;fill-opacity:1;stroke:none;stroke-width:0.989638px;stroke-linecap:butt;stroke-linejoin:miter;stroke-opacity:1"
               d="M 9.6667928,540.58527 160.8479,488.46501 312.029,540.58642 Z"
               id="path9592"
               sodipodi:nodetypes="cccc" />
            <path
               id="rect10497"
               style="stroke-width:7.48074;stroke-linecap:round;stroke-linejoin:round"
               d="M 9.6667958,548.14548 H 312.029 v 22.67716 H 9.6667958 Z"
               sodipodi:nodetypes="ccccc" />
            <path
               id="path11233"
               style="stroke-width:5.91404;stroke-linecap:round;stroke-linejoin:round"
               d="M 19.115615,737.12198 H 302.58018 v 15.11811 H 19.115615 Z"
               sodipodi:nodetypes="ccccc" />
            <path
               id="path11235"
               style="stroke-width:7.48074;stroke-linecap:round;stroke-linejoin:round"
               d="M 9.6667985,759.79916 H 312.029 v 22.67716 H 9.6667985 Z"
               sodipodi:nodetypes="ccccc" />
            <path
               id="path11141"
               style="stroke-width:8.64933;stroke-linecap:round;stroke-linejoin:round"
               d="m 179.74554,578.3817 h 37.79528 v 151.1811 h -37.79528 z" />
            <path
               id="path11374"
               style="stroke-width:8.64933;stroke-linecap:round;stroke-linejoin:round"
               d="m 104.15498,578.3817 h 37.79528 v 151.1811 h -37.79528 z" />
            <path
               id="path11456"
               style="stroke-width:8.64933;stroke-linecap:round;stroke-linejoin:round"
               d="m 255.3361,578.3817 h 37.79528 V 729.5628 H 255.3361 Z" />
            <path
               id="path11538"
               style="stroke-width:8.64933;stroke-linecap:round;stroke-linejoin:round"
               d="M 28.56442,578.3817 H 66.3597 V 729.5628 H 28.56442 Z" />
          </g>
          <path
             d="m 159.31683,420.59403 -18.6,-28.16 h -3.88 l -18.72,28.16 h 5.92 l 14.76,-22.68 14.52,22.68 z"
             id="path855"
             style="fill:#ffffff;fill-opacity:1" />
        </g>
      </g>
      <g
         id="g1169"
         transform="translate(0.01913094,-0.22205462)">
        <path
           d="M 192.84699,315.26408 143.1327,239.99772 h -10.3705 l -50.035025,75.26636 h 15.823037 l 39.450688,-60.61935 38.80922,60.61935 z"
           id="path7884"
           style="stroke-width:2.67281" />
        <path
           d="m 20.174609,299.06992 -18.5999996,-28.16 h -3.88 l -18.7200004,28.16 h 5.92 l 14.76000037,-22.68 14.51999963,22.68 z"
           id="path7876"
           style="font-size:40px;line-height:1.25;font-family:pirulen;-inkscape-font-specification:pirulen;white-space:pre;shape-inside:url(#rect3290)"
           transform="translate(0.5681682)" />
        <path
           d="m 50.974561,299.06992 v -4.16 h -22.84 v -24 h -5.36 v 28.16 z"
           id="path7878"
           style="font-size:40px;line-height:1.25;font-family:pirulen;-inkscape-font-specification:pirulen;white-space:pre;shape-inside:url(#rect3290)"
           transform="translate(0.5681682)" />
        <path
           d="m 83.654498,299.06992 v -4.16 h -23.64 v -8.64 h 22.44 v -4.16 h -22.44 v -7.04 h 23.64 v -4.16 h -28.96 v 28.16 z"
           id="path7880"
           style="font-size:40px;line-height:1.25;font-family:pirulen;-inkscape-font-specification:pirulen;white-space:pre;shape-inside:url(#rect3290)"
           transform="translate(0.5681682)" />
        <path
           d="m 124.93449,299.06992 -16.04,-14.28 15.96,-13.88 h -6.84 l -12.52,11.28 -12.519997,-11.28 h -6.92 l 16.079997,14.08 -16.079997,14.08 h 6.96 l 12.479997,-11.24 12.56,11.24 z"
           id="path7882"
           style="font-size:40px;line-height:1.25;font-family:pirulen;-inkscape-font-specification:pirulen;white-space:pre;shape-inside:url(#rect3290)"
           transform="translate(0.5681682)" />
        <path
           d="m 114.5173,289.79577 -5.62281,-5.00585 15.96,-13.88 h -6.84 l -12.52,11.28 -0.90222,-0.81287 -2.45778,3.61287 -9.220063,14.08 h 0.100066 l 12.479997,-11.24 6.60637,5.91207 z"
           id="path7928"
           style="font-size:40px;line-height:1.25;font-family:pirulen;-inkscape-font-specification:pirulen;white-space:pre;shape-inside:url(#rect3290);fill:#ffffff;fill-opacity:1"
           sodipodi:nodetypes="cccccccccccc"
           transform="translate(0.5681682)" />
        <g
           id="g7920"
           transform="translate(-13.988513)">
          <path
             d="m 206.49438,299.06992 v -28.16 h -4.64 v 20.92 l -28.04,-20.92 h -4.6 v 28.16 h 4.64 v -21.92 l 30.04,21.92 z"
             id="path7886" />
          <path
             d="m 237.49431,299.06992 c 7.96,0 10.4,-2.76 10.4,-8.04 v -11.8 c 0,-5.56 -2.44,-8.32 -10.4,-8.32 h -25.8 v 28.16 z m 5.08,-8.08 c 0,3 -1.12,3.92 -5.08,3.92 h -20.48 v -19.84 h 20.48 c 3.96,0 5.08,0.92 5.08,4.16 z"
             id="path7888" />
          <path
             d="m 285.33425,299.06992 -6.64,-12.64 c 5,-0.48 6.96,-3.08 6.96,-6.72 v -2 c 0,-4.04 -2.44,-6.8 -8.84,-6.8 h -23.92 v 28.16 h 5.32 v -12.56 h 14.84 l 6.6,12.56 z m -5,-19.32 c 0,1.68 -1.12,2.6 -3.52,2.6 h -18.6 v -7.28 h 18.6 c 2.4,0 3.52,0.92 3.52,2.6 z"
             id="path7890" />
          <path
             d="m 295.45423,299.06992 v -28.16 h -5.32 v 28.16 z"
             id="path7892" />
          <path
             d="m 339.45415,299.06992 -18.6,-28.16 h -3.88 l -18.72,28.16 h 5.92 l 14.76,-22.68 14.52,22.68 z"
             id="path7894" />
          <path
             d="m 181.2623,276.46664 -7.44792,-5.55672 h -4.6 v 10.88504 l 4.64,7.00248 v -11.64752 l 15.21971,11.10573 z"
             id="path8871"
             style="fill:#ffffff;fill-opacity:1"
             sodipodi:nodetypes="cccccccc" />
        </g>
      </g>
    </g>
  </g>
</svg>
